<svg xmlns="http://www.w3.org/2000/svg" width="22" height="22">

    <path style="fill:#000;fill-opacity:1"
    	d="M11.063 2.176L2.953 8.25v10.871h1.3V8.902l7.59-5.687zm2.874 2.222l-.824 1.059 4.625 3.602v7.14c0 .422-.148.828-.422 1.149-.265.3-.62.5-1.183.484H6.648v1.34h9.454c.925.02 1.714-.367 2.218-.938a3.089 3.089 0 0 0 .758-2.023V8.402zM7.742 8.211v3.953a2.923 2.923 0 0 0 0 .262v.39h.028a3.702 3.702 0 0 0 1.82 2.704 3.708 3.708 0 0 0 4.195-.364 3.698 3.698 0 0 0-2.265-6.539l-.036 1.297c1 .024 1.88.668 2.207 1.613a2.381 2.381 0 0 1-.738 2.625 2.374 2.374 0 0 1-2.473.356 2.384 2.384 0 0 1-1.437-2.047v-.305c.004-.078.008-.156.02-.23l-.02-.004V8.21zm0 0" 
    	class="ColorScheme-Text"/>
</svg>
