<svg xmlns="http://www.w3.org/2000/svg" width="22" height="22">
    <path d="M11.341 9.499a1.516 1.54 0 0 1 1.137 1.845 1.516 1.54 0 0 1-1.815 1.158 1.516 1.54 0 0 1-1.142-1.842 1.516 1.54 0 0 1 1.812-1.163M11.33 16.002a1.516 1.54 0 0 1 1.136 1.846 1.516 1.54 0 0 1-1.814 1.157 1.516 1.54 0 0 1-1.142-1.842A1.516 1.54 0 0 1 11.32 16M11.341 3.047a1.516 1.54 0 0 1 1.137 1.846 1.516 1.54 0 0 1-1.815 1.158 1.516 1.54 0 0 1-1.142-1.843 1.516 1.54 0 0 1 1.812-1.163M17.842 3.047a1.516 1.54 0 0 1 1.136 1.846 1.516 1.54 0 0 1-1.814 1.158 1.516 1.54 0 0 1-1.142-1.843 1.516 1.54 0 0 1 1.812-1.163M17.825 9.499a1.516 1.54 0 0 1 1.137 1.845 1.516 1.54 0 0 1-1.814 1.158 1.516 1.54 0 0 1-1.142-1.842 1.516 1.54 0 0 1 1.811-1.163M17.825 16.033a1.516 1.54 0 0 1 1.137 1.846 1.516 1.54 0 0 1-1.814 1.157 1.516 1.54 0 0 1-1.142-1.842 1.516 1.54 0 0 1 1.811-1.163M4.862 16.024A1.516 1.54 0 0 1 6 17.87a1.516 1.54 0 0 1-1.815 1.158 1.516 1.54 0 0 1-1.141-1.843 1.516 1.54 0 0 1 1.81-1.163M4.885 9.499a1.516 1.54 0 0 1 1.137 1.845 1.516 1.54 0 0 1-1.814 1.158 1.516 1.54 0 0 1-1.142-1.842 1.516 1.54 0 0 1 1.811-1.163M4.792 3.02A1.516 1.54 0 0 1 5.93 4.866a1.516 1.54 0 0 1-1.815 1.157 1.516 1.54 0 0 1-1.141-1.842 1.516 1.54 0 0 1 1.811-1.163" fill="#fff" paint-order="stroke fill markers"/>
</svg>
