<?xml version="1.0" encoding="UTF-8" standalone="no"?>
<svg
   xmlns:dc="http://purl.org/dc/elements/1.1/"
   xmlns:cc="http://creativecommons.org/ns#"
   xmlns:rdf="http://www.w3.org/1999/02/22-rdf-syntax-ns#"
   xmlns:svg="http://www.w3.org/2000/svg"
   xmlns="http://www.w3.org/2000/svg"
   xmlns:sodipodi="http://sodipodi.sourceforge.net/DTD/sodipodi-0.dtd"
   xmlns:inkscape="http://www.inkscape.org/namespaces/inkscape"
   enable-background="new 0 0 410.23 410.23"
   height="24"
   viewBox="0 0 23.999999 23.999999"
   width="24"
   version="1.1"
   id="svg4"
   sodipodi:docname="search.svg"
   inkscape:version="0.92.4 5da689c313, 2019-01-14">
  <metadata
     id="metadata10">
    <rdf:RDF>
      <cc:Work
         rdf:about="">
        <dc:format>image/svg+xml</dc:format>
        <dc:type
           rdf:resource="http://purl.org/dc/dcmitype/StillImage" />
        <dc:title />
      </cc:Work>
    </rdf:RDF>
  </metadata>
  <defs
     id="defs8" />
  <sodipodi:namedview
     pagecolor="#ffffff"
     bordercolor="#666666"
     borderopacity="1"
     objecttolerance="10"
     gridtolerance="10"
     guidetolerance="10"
     inkscape:pageopacity="0"
     inkscape:pageshadow="2"
     inkscape:window-width="1366"
     inkscape:window-height="700"
     id="namedview6"
     showgrid="true"
     inkscape:zoom="26.034518"
     inkscape:cx="14.141868"
     inkscape:cy="14.368873"
     inkscape:window-x="0"
     inkscape:window-y="0"
     inkscape:window-maximized="1"
     inkscape:current-layer="svg4">
    <inkscape:grid
       type="xygrid"
       id="grid817" />
  </sodipodi:namedview>
  <path
     d="M 19.722588,18.168731 15.553856,14 c 0.744415,-1.042183 1.191067,-2.307711 1.191067,-3.647662 0,-3.4987738 -2.828782,-6.3275197 -6.32752,-6.3275197 -3.4987389,0 -6.3275594,2.8287848 -6.3275594,6.3275197 0,3.498739 2.8287814,6.327521 6.3275204,6.327521 1.33995,0 2.605475,-0.446649 3.647658,-1.191067 l 4.168735,4.168735 c 0.372187,0.372186 1.042183,0.372186 1.488831,0 0.446652,-0.446613 0.446652,-1.042183 0,-1.488796 z m -9.305224,-2.977664 c -2.6799008,0 -4.8386859,-2.158828 -4.8386859,-4.83869 0,-2.6798972 2.1587851,-4.8386856 4.8386859,-4.8386856 2.679898,0 4.838686,2.1587884 4.838686,4.8386856 3.9e-5,2.679862 -2.158788,4.83869 -4.838686,4.83869 z"
     id="path2"
     inkscape:connector-curvature="0"
     style="fill:#ff3b00;stroke-width:0.03892373" />
</svg>
